<?xml version="1.0"?>
<mxfile host="Electron" modified="2022-06-09T17:40:57.411Z" agent="5.0 (X11; Linux x86_64) AppleWebKit/537.36 (KHTML, like Gecko) draw.io/18.1.3 Chrome/100.0.4896.143 Electron/18.2.3 Safari/537.36" etag="X75q17N8kDkpUrSTAeGR" version="18.1.3">
  <diagram id="ZNJziAjdaPIJvLetzNAb" name="Page-1">
    <mxGraphModel dx="2" dy="1" grid="1" gridSize="10" guides="0" tooltips="1" connect="1" arrows="1" fold="1" page="1" pageScale="1" pageWidth="850" pageHeight="1100" math="0" shadow="0">
      <root>
        <mxCell id="0"/>
        <mxCell id="1" parent="0"/>
        <mxCell id="v_liOWd7HeKcWQdTeGAF-1" value="&lt;b&gt;sbc&#x6570;&#x636E;&#x6D41;&#x56FE;&lt;/b&gt;" style="text;html=1;align=center;verticalAlign=middle;resizable=0;points=[];autosize=1;strokeColor=none;fillColor=none;sketch=1;" parent="1" vertex="1">
          <mxGeometry x="100" y="90" width="80" height="20" as="geometry"/>
        </mxCell>
        <mxCell id="v_liOWd7HeKcWQdTeGAF-2" value="CF" style="ellipse;whiteSpace=wrap;html=1;fillColor=#f5f5f5;fontColor=#333333;strokeColor=#666666;sketch=1;" parent="1" vertex="1">
          <mxGeometry x="60" y="120" width="40" height="20" as="geometry"/>
        </mxCell>
        <mxCell id="v_liOWd7HeKcWQdTeGAF-3" value="x2" style="ellipse;whiteSpace=wrap;html=1;fillColor=#f5f5f5;fontColor=#333333;strokeColor=#666666;sketch=1;" parent="1" vertex="1">
          <mxGeometry x="120" y="120" width="40" height="20" as="geometry"/>
        </mxCell>
        <mxCell id="v_liOWd7HeKcWQdTeGAF-4" value="x3" style="ellipse;whiteSpace=wrap;html=1;fillColor=#f5f5f5;fontColor=#333333;strokeColor=#666666;sketch=1;" parent="1" vertex="1">
          <mxGeometry x="180" y="120" width="40" height="20" as="geometry"/>
        </mxCell>
        <mxCell id="v_liOWd7HeKcWQdTeGAF-5" value="not" style="rounded=0;whiteSpace=wrap;html=1;fillColor=#ffe6cc;strokeColor=#d79b00;sketch=1;" parent="1" vertex="1">
          <mxGeometry x="160" y="150" width="40" height="20" as="geometry"/>
        </mxCell>
        <mxCell id="v_liOWd7HeKcWQdTeGAF-6" value="add" style="rounded=0;whiteSpace=wrap;html=1;fillColor=#ffe6cc;strokeColor=#d79b00;sketch=1;" parent="1" vertex="1">
          <mxGeometry x="140" y="180" width="40" height="20" as="geometry"/>
        </mxCell>
        <mxCell id="v_liOWd7HeKcWQdTeGAF-7" value="add" style="rounded=0;whiteSpace=wrap;html=1;fillColor=#ffe6cc;strokeColor=#d79b00;sketch=1;" parent="1" vertex="1">
          <mxGeometry x="120" y="210" width="40" height="20" as="geometry"/>
        </mxCell>
        <mxCell id="v_liOWd7HeKcWQdTeGAF-8" value="" style="endArrow=classic;html=1;rounded=0;fillColor=#f5f5f5;strokeColor=#666666;sketch=1;" parent="1" source="v_liOWd7HeKcWQdTeGAF-4" target="v_liOWd7HeKcWQdTeGAF-5" edge="1">
          <mxGeometry width="50" height="50" relative="1" as="geometry">
            <mxPoint x="10" y="260" as="sourcePoint"/>
            <mxPoint x="60" y="210" as="targetPoint"/>
          </mxGeometry>
        </mxCell>
        <mxCell id="v_liOWd7HeKcWQdTeGAF-9" value="" style="endArrow=classic;html=1;rounded=0;fillColor=#ffe6cc;strokeColor=#d79b00;sketch=1;" parent="1" source="v_liOWd7HeKcWQdTeGAF-5" target="v_liOWd7HeKcWQdTeGAF-6" edge="1">
          <mxGeometry width="50" height="50" relative="1" as="geometry">
            <mxPoint x="30" y="290" as="sourcePoint"/>
            <mxPoint x="80" y="240" as="targetPoint"/>
          </mxGeometry>
        </mxCell>
        <mxCell id="v_liOWd7HeKcWQdTeGAF-10" value="" style="endArrow=classic;html=1;rounded=0;fillColor=#f5f5f5;strokeColor=#666666;sketch=1;" parent="1" source="v_liOWd7HeKcWQdTeGAF-3" target="v_liOWd7HeKcWQdTeGAF-6" edge="1">
          <mxGeometry width="50" height="50" relative="1" as="geometry">
            <mxPoint x="10" y="280" as="sourcePoint"/>
            <mxPoint x="60" y="230" as="targetPoint"/>
          </mxGeometry>
        </mxCell>
        <mxCell id="v_liOWd7HeKcWQdTeGAF-11" value="" style="endArrow=classic;html=1;rounded=0;fillColor=#f5f5f5;strokeColor=#666666;sketch=1;" parent="1" source="v_liOWd7HeKcWQdTeGAF-2" target="v_liOWd7HeKcWQdTeGAF-7" edge="1">
          <mxGeometry width="50" height="50" relative="1" as="geometry">
            <mxPoint x="20" y="310" as="sourcePoint"/>
            <mxPoint x="70" y="260" as="targetPoint"/>
          </mxGeometry>
        </mxCell>
        <mxCell id="v_liOWd7HeKcWQdTeGAF-12" value="" style="endArrow=classic;html=1;rounded=0;fillColor=#ffe6cc;strokeColor=#d79b00;sketch=1;" parent="1" source="v_liOWd7HeKcWQdTeGAF-6" target="v_liOWd7HeKcWQdTeGAF-7" edge="1">
          <mxGeometry width="50" height="50" relative="1" as="geometry">
            <mxPoint x="70" y="360" as="sourcePoint"/>
            <mxPoint x="120" y="310" as="targetPoint"/>
          </mxGeometry>
        </mxCell>
        <mxCell id="v_liOWd7HeKcWQdTeGAF-13" value="x1" style="ellipse;whiteSpace=wrap;html=1;fillColor=#e1d5e7;strokeColor=#9673a6;sketch=1;" parent="1" vertex="1">
          <mxGeometry x="120" y="240" width="40" height="20" as="geometry"/>
        </mxCell>
        <mxCell id="v_liOWd7HeKcWQdTeGAF-14" value="" style="endArrow=classic;html=1;rounded=0;fillColor=#e1d5e7;strokeColor=#9673a6;sketch=1;" parent="1" source="v_liOWd7HeKcWQdTeGAF-7" target="v_liOWd7HeKcWQdTeGAF-13" edge="1">
          <mxGeometry width="50" height="50" relative="1" as="geometry">
            <mxPoint x="40" y="370" as="sourcePoint"/>
            <mxPoint x="90" y="320" as="targetPoint"/>
          </mxGeometry>
        </mxCell>
      </root>
    </mxGraphModel>
  </diagram>
</mxfile>
